<svg width="24" height="24" viewBox="0 0 24 24" fill="none" xmlns="http://www.w3.org/2000/svg">
<path d="M12 24C18.6274 24 24 18.6274 24 12C24 5.37258 18.6274 0 12 0C5.37258 0 0 5.37258 0 12C0 18.6274 5.37258 24 12 24Z" fill="white"/>
<path d="M11.9999 0C5.37362 0 0.00195312 5.37167 0.00195312 11.9979C0.00195312 15.5763 1.56839 18.7879 4.05272 20.9852C4.37906 20.6983 4.82868 20.4382 5.32493 20.3035C6.1817 20.0694 6.78362 20.0352 7.68079 19.8529C7.64453 21.2878 7.61656 22.531 7.60206 23.1639C7.98849 23.3162 8.38424 23.4488 8.78931 23.5607C8.44329 20.7584 8.36352 17.0837 8.34487 15.6167L8.33969 14.9744V14.5745C8.4464 14.6232 8.54689 14.7682 8.55414 14.8935L8.80071 19.5815C9.75797 19.2841 9.99004 18.7796 10.0719 18.3507C10.0719 18.3517 10.0729 18.3517 10.0729 18.3496C10.1599 17.9197 10.5609 17.5789 11.0167 17.5789C11.1317 17.5789 11.2229 17.5903 11.3089 17.6151C11.5772 17.6897 11.8725 17.699 11.9761 17.699C12.1884 17.699 12.5148 17.5996 12.6961 17.4887C12.9634 17.3261 13.0649 17.2163 13.1498 17.0951C13.1498 17.0919 13.1488 17.0888 13.1467 17.0878C13.1457 17.0868 13.1426 17.0857 13.1395 17.0857C13.0411 17.1572 12.9613 17.2007 12.894 17.2401C12.6432 17.3893 12.3241 17.4794 11.9926 17.4815C11.6601 17.4804 11.3317 17.3955 11.083 17.2432C10.5029 16.8858 9.63262 16.1585 9.09597 15.0137C8.61112 13.9777 8.61319 12.2103 8.6163 11.943C8.61734 11.8083 8.72819 11.6757 8.85976 11.6447C9.27209 11.6208 10.0429 11.6042 10.4376 11.769C10.8903 11.9575 11.2985 12.3667 11.4643 13.0629H11.4653C11.4653 13.064 11.4643 13.065 11.4643 13.065C11.4643 13.0837 11.4798 13.0992 11.4985 13.0992C11.5171 13.0992 11.5326 13.0837 11.5326 13.065C11.5326 13.0629 11.5316 13.0619 11.5316 13.0598H11.5326C11.5005 12.5501 11.3327 11.9461 10.6272 11.5804C10.2915 11.4064 9.86883 11.3484 9.49897 11.338C9.62744 11.1712 9.65541 10.8946 9.65541 10.6936C9.65541 10.6936 9.65334 10.6687 9.66991 10.6615C9.68545 10.6553 9.69789 10.6656 9.70514 10.6739C9.99107 10.9847 10.3827 11.1308 10.6769 10.9826C10.9877 10.8252 11.0944 10.3756 10.9929 9.92178C10.9929 9.92178 10.9908 9.89692 11.0074 9.88967C11.0209 9.88345 11.0323 9.89174 11.0395 9.89899C11.2467 10.2098 11.5927 10.4232 11.9999 10.4284C12.407 10.4232 12.7531 10.2098 12.9603 9.89899C12.9675 9.89174 12.9789 9.88345 12.9924 9.88967C13.01 9.89692 13.0069 9.92178 13.0069 9.92178C12.9053 10.3756 13.011 10.8262 13.3229 10.9826C13.616 11.1308 14.0076 10.9847 14.2946 10.6739C14.3019 10.6656 14.3143 10.6553 14.3298 10.6615C14.3475 10.6687 14.3444 10.6936 14.3444 10.6936C14.3444 10.8946 14.3723 11.1702 14.5008 11.338C14.1299 11.3473 13.7082 11.4053 13.3726 11.5804C12.6671 11.9472 12.4982 12.5501 12.4671 13.0598C12.4671 13.0609 12.4671 13.0619 12.4671 13.0619C12.4671 13.0805 12.4827 13.0961 12.5013 13.0961C12.52 13.0961 12.5355 13.0805 12.5355 13.0619C12.7013 12.3657 13.1094 11.9565 13.5622 11.7679C13.9569 11.6032 14.7256 11.6198 15.139 11.6436C15.2654 11.6737 15.3555 11.8063 15.3565 11.942H15.3534C15.3545 11.9492 15.3565 11.9575 15.3565 11.9648V11.942C15.3576 12.3585 15.371 13.9829 14.8727 15.0438C14.6023 15.6177 14.1786 16.1295 13.7787 16.5201L13.7901 17.1748C13.7973 17.5333 13.8295 17.9601 13.8833 18.3103C13.9569 18.7868 14.2418 19.2966 15.1908 19.5742L15.4373 14.8863C15.4456 14.7682 15.5358 14.6252 15.6518 14.5672V14.963L15.6466 15.6105C15.628 17.0795 15.5482 20.7594 15.2011 23.5628C15.6062 23.4509 16.003 23.3193 16.3894 23.1671C16.3749 22.5372 16.3459 21.2888 16.3107 19.8456C17.2068 20.028 17.73 20.0694 18.5857 20.3035C19.1058 20.4455 19.573 20.7231 19.9004 21.0277C22.4117 18.8283 23.9978 15.5991 23.9978 11.999C23.9968 5.37167 18.6261 0 11.9999 0ZM11.9999 9.65035C11.6984 9.65035 11.4539 9.40585 11.4539 9.10438C11.4539 8.8029 11.6984 8.5584 11.9999 8.5584C12.3014 8.5584 12.5459 8.8029 12.5459 9.10438C12.5459 9.40585 12.3014 9.65035 11.9999 9.65035ZM18.8561 12.8402C18.8561 12.8412 18.8561 12.8433 18.8561 12.8443C18.8365 13.1137 18.7836 13.3717 18.6945 13.6141C18.6406 13.7602 18.5743 13.9 18.4946 14.0337C18.478 14.0616 18.4604 14.0896 18.4417 14.1176C18.3298 14.2823 18.1869 14.4305 18.0149 14.5372C17.9859 14.5548 17.9569 14.5714 17.9268 14.5869C17.8668 14.62 17.8046 14.647 17.7404 14.6708C17.644 14.705 17.5446 14.7278 17.442 14.7402C17.3747 14.7485 17.3052 14.7516 17.2369 14.7506C17.1001 14.7475 16.9623 14.7257 16.8308 14.6853C16.7323 14.6553 16.636 14.6138 16.5459 14.5631C16.4858 14.5289 16.4277 14.4905 16.3728 14.4481C16.1542 14.2782 15.9802 14.0471 15.8859 13.785C15.8362 13.6545 15.8061 13.5157 15.7979 13.3768L15.7916 13.2732V13.2266L15.7906 13.18L15.7885 12.9946L15.7792 12.2922C15.7761 12.0445 15.7761 11.7182 15.7564 11.4882C15.6798 10.5486 15.2395 9.65139 14.5505 9.01735C14.2055 8.70137 13.8067 8.44444 13.3715 8.27143C12.9375 8.09738 12.4671 8.02383 11.9978 8.01968C11.5285 8.02383 11.0613 8.09738 10.6272 8.27143C10.1931 8.44444 9.7932 8.70137 9.44821 9.01735C8.75927 9.65139 8.31793 10.5486 8.2423 11.4882C8.22262 11.7182 8.22262 12.0445 8.21951 12.2922L8.21019 12.9946L8.20812 13.18L8.20708 13.2266L8.20605 13.2732L8.19983 13.3768C8.1905 13.5167 8.1615 13.6545 8.11177 13.785C8.01646 14.0482 7.84345 14.2792 7.62485 14.4481C7.56994 14.4905 7.51192 14.5289 7.45184 14.5631C7.3617 14.6138 7.26536 14.6542 7.16694 14.6853C7.03536 14.7257 6.89758 14.7475 6.76082 14.7506C6.69245 14.7516 6.62407 14.7485 6.5557 14.7402C6.45417 14.7278 6.35367 14.705 6.25733 14.6708C6.19309 14.648 6.13094 14.62 6.07085 14.5869C6.0408 14.5714 6.0118 14.5548 5.98279 14.5372C5.81081 14.4305 5.66784 14.2823 5.55596 14.1176C5.53731 14.0907 5.51969 14.0627 5.50312 14.0337C5.42335 13.9 5.35704 13.7602 5.30421 13.6141C5.21511 13.3717 5.16124 13.1127 5.14259 12.8443C5.14259 12.8433 5.14259 12.8412 5.14259 12.8402C5.13948 12.8008 5.13637 12.7615 5.13534 12.7221C5.13534 12.7242 5.13637 12.7252 5.13637 12.7273C5.13637 12.7262 5.13637 12.7252 5.13637 12.7252C5.13637 12.7242 5.13637 12.7231 5.13637 12.7231C5.13637 12.231 5.43578 11.8094 5.86158 11.6291C6.00351 11.569 6.15994 11.5359 6.32363 11.5359C6.40547 11.5359 6.48525 11.5442 6.56295 11.5597C6.64065 11.5752 6.71524 11.5991 6.78569 11.6291C6.92762 11.6892 7.05608 11.7762 7.16279 11.884C7.18973 11.9109 7.21563 11.9389 7.23946 11.9679C7.28815 12.0269 7.33062 12.0901 7.36688 12.1575C7.45805 12.3253 7.50985 12.519 7.50985 12.7242C7.50985 12.9293 7.45805 13.122 7.36688 13.2898C7.33062 13.3572 7.28711 13.4204 7.23946 13.4794C7.21563 13.5084 7.18973 13.5364 7.16279 13.5633C7.05505 13.6711 6.92762 13.7581 6.78569 13.8182C6.7142 13.8482 6.63961 13.871 6.56295 13.8876C6.48525 13.9031 6.40547 13.9114 6.32363 13.9114C6.2998 13.9114 6.27598 13.9104 6.25215 13.9093C6.20553 13.9062 6.15891 13.9011 6.11332 13.8928C6.09053 13.8886 6.06774 13.8835 6.04598 13.8783C5.93513 13.8513 5.82946 13.8089 5.73311 13.754C5.67717 13.7218 5.62433 13.6845 5.57357 13.6441C5.53627 13.6141 5.48447 13.6586 5.50726 13.7011C5.56217 13.8006 5.6119 13.8783 5.65541 13.9394C5.72171 14.0337 5.80149 14.1186 5.88955 14.1901C5.97761 14.2616 6.07603 14.3206 6.17859 14.3652C6.25526 14.3994 6.33606 14.4242 6.41791 14.4419C6.55466 14.4698 6.69452 14.475 6.83231 14.4605C7.02397 14.4346 7.20838 14.3631 7.36378 14.2512C7.38657 14.2357 7.40729 14.2181 7.42905 14.2015C7.44977 14.1839 7.47048 14.1663 7.49017 14.1476C7.58962 14.0544 7.6725 13.9446 7.73466 13.8234C7.75953 13.7747 7.78025 13.7249 7.79682 13.6731C7.81444 13.6224 7.82894 13.5695 7.8393 13.5167C7.84966 13.4639 7.85484 13.41 7.85691 13.3561L7.86002 13.2743L7.85898 13.181L7.85691 12.9956L7.84759 12.2517C7.84655 12.1274 7.84345 12.0052 7.84345 11.8798C7.84345 11.7545 7.84552 11.627 7.85277 11.4955C7.88281 10.9764 8.01024 10.4626 8.22987 9.98809C8.31275 9.81093 8.4091 9.63999 8.51685 9.4763C8.58833 9.36752 8.66499 9.26081 8.74684 9.15929C8.82868 9.05776 8.91467 8.95934 9.00584 8.86506C9.05142 8.81844 9.09804 8.77182 9.1457 8.72727C9.28763 8.59156 9.43992 8.46724 9.6005 8.35431C9.65437 8.31702 9.70825 8.28076 9.76419 8.24553C9.87504 8.17612 9.989 8.11189 10.1061 8.05284C10.6904 7.75861 11.3451 7.60218 11.9978 7.60425H11.9988H11.9999H12.0009H12.002C12.6546 7.60218 13.3094 7.75861 13.8937 8.05284C14.0108 8.11189 14.1247 8.17612 14.2356 8.24553C14.2905 8.28076 14.3454 8.31702 14.3993 8.35431C14.5598 8.46724 14.7121 8.59156 14.8541 8.72727C14.9017 8.77182 14.9483 8.81844 14.9939 8.86506C15.0851 8.95934 15.1711 9.05776 15.2529 9.15929C15.3348 9.26081 15.4114 9.36752 15.4829 9.4763C15.5907 9.63999 15.686 9.81093 15.7699 9.98809C15.9895 10.4615 16.118 10.9764 16.147 11.4955C16.1542 11.6281 16.1563 11.7545 16.1563 11.8798C16.1563 12.0052 16.1532 12.1274 16.1522 12.2517L16.1428 12.9956L16.1408 13.181L16.1397 13.2743L16.1428 13.3561C16.1449 13.41 16.1511 13.4639 16.1605 13.5167C16.1708 13.5695 16.1843 13.6224 16.2029 13.6731C16.2205 13.7249 16.2413 13.7747 16.2651 13.8234C16.3262 13.9446 16.4101 14.0544 16.5096 14.1476C16.5293 14.1663 16.55 14.1839 16.5707 14.2015C16.5914 14.2191 16.6132 14.2357 16.636 14.2512C16.7914 14.3631 16.9758 14.4346 17.1675 14.4605C17.3042 14.476 17.4451 14.4709 17.5819 14.4419C17.6637 14.4242 17.7435 14.3994 17.8212 14.3652C17.9237 14.3206 18.0222 14.2616 18.1102 14.1901C18.1993 14.1186 18.278 14.0337 18.3443 13.9394C18.3868 13.8783 18.4376 13.8006 18.4925 13.7011C18.5153 13.6586 18.4635 13.6141 18.4262 13.6441C18.3765 13.6845 18.3236 13.7218 18.2666 13.754C18.1703 13.8099 18.0646 13.8524 17.9538 13.8783C17.932 13.8835 17.9092 13.8886 17.8864 13.8928C17.8409 13.9011 17.7953 13.9062 17.7476 13.9093C17.7238 13.9104 17.7 13.9114 17.6761 13.9114C17.5943 13.9114 17.5145 13.9031 17.4368 13.8876C17.3591 13.8721 17.2845 13.8482 17.2141 13.8182C17.0721 13.7581 16.9437 13.6711 16.837 13.5633C16.81 13.5364 16.7841 13.5084 16.7603 13.4794C16.7116 13.4204 16.6691 13.3572 16.6318 13.2898C16.5407 13.122 16.4889 12.9283 16.4889 12.7242C16.4889 12.519 16.5407 12.3263 16.6318 12.1575C16.6681 12.0901 16.7116 12.0269 16.7603 11.9679C16.7841 11.9389 16.81 11.9109 16.837 11.884C16.9447 11.7762 17.0721 11.6892 17.2141 11.6291C17.2856 11.5991 17.3602 11.5752 17.4368 11.5597C17.5145 11.5442 17.5943 11.5359 17.6761 11.5359C17.8398 11.5359 17.9963 11.569 18.1382 11.6291C18.564 11.8094 18.8634 12.231 18.8634 12.7231C18.8634 12.7242 18.8634 12.7252 18.8634 12.7252C18.8634 12.7262 18.8634 12.7273 18.8634 12.7273C18.8634 12.7252 18.8644 12.7242 18.8644 12.7221C18.8624 12.7625 18.8592 12.8008 18.8561 12.8402ZM19.4094 13.3903C19.2716 13.3903 19.139 13.3654 19.0157 13.3219C19.0975 13.1375 19.1441 12.9345 19.1441 12.72C19.1441 12.1222 18.7878 11.6063 18.277 11.3722V10.4346C18.2076 10.4429 18.1371 10.447 18.0657 10.447C17.0545 10.447 16.2351 9.62756 16.2351 8.61642C16.2351 8.40508 16.2734 8.20306 16.3397 8.0145C16.4526 8.13054 16.6163 8.19684 16.7955 8.17509C17.0348 8.14608 17.2317 7.95131 17.2638 7.71199C17.3125 7.34421 16.9903 7.03652 16.6194 7.108C16.4236 7.14634 16.262 7.29759 16.2081 7.49029C16.1739 7.61357 16.1843 7.7296 16.2237 7.83217C16.1429 7.84149 16.061 7.84771 15.9781 7.84771C14.9162 7.84771 14.0315 7.10282 13.8098 6.10826C13.9279 6.11966 14.0563 6.10101 14.191 6.01399C14.3775 5.89277 14.5029 5.69386 14.4987 5.47112C14.4904 5.09713 14.1527 4.80394 13.7642 4.86921C13.499 4.91375 13.2876 5.13442 13.2524 5.40067C13.2141 5.68868 13.3726 5.94457 13.6119 6.05439C13.1809 6.43149 12.6173 6.66045 11.9999 6.66045C11.3824 6.66045 10.8188 6.43149 10.3879 6.05439C10.6261 5.94457 10.7847 5.69075 10.7484 5.40378C10.7132 5.12717 10.4884 4.90132 10.2128 4.86506C9.78491 4.80912 9.42749 5.18415 9.51451 5.61616C9.55803 5.83269 9.71964 6.01295 9.92995 6.08029C10.0201 6.1093 10.1081 6.11655 10.191 6.10826C9.96932 7.10282 9.08457 7.84771 8.02267 7.84771C7.93876 7.84771 7.85691 7.84149 7.7761 7.83217C7.81547 7.7296 7.82583 7.61254 7.79165 7.49029C7.73777 7.29759 7.57616 7.14634 7.38035 7.108C7.00946 7.03548 6.68727 7.34318 6.73596 7.71199C6.76704 7.95131 6.96492 8.14608 7.20423 8.17509C7.38346 8.19684 7.54818 8.13054 7.66111 8.01347C7.72741 8.20306 7.76575 8.40508 7.76575 8.61642C7.76575 9.62756 6.94627 10.447 5.93513 10.447C5.86365 10.447 5.7932 10.4429 5.72379 10.4346V11.3722C5.21304 11.6063 4.85665 12.1222 4.85665 12.72C4.85665 12.9345 4.90224 13.1375 4.98512 13.3219C4.86183 13.3654 4.73026 13.3903 4.59144 13.3903C3.89524 13.3903 3.33995 12.7905 3.4135 12.0798C3.46841 11.5452 3.89214 11.107 4.42361 11.0324C4.70436 10.993 4.96958 11.0541 5.18921 11.1836L5.56217 10.4097C4.73026 10.2378 4.10555 9.50117 4.10555 8.61746C4.10555 7.60632 4.92503 6.78684 5.93513 6.78684C5.96621 6.78684 5.99729 6.78788 6.02837 6.78995V6.78892C6.06567 6.77959 6.0895 6.74229 6.08017 6.70396C5.86261 6.31443 5.75798 5.85548 5.81185 5.36649C5.92581 4.34499 6.7515 3.5224 7.773 3.41155C8.41532 3.34214 9.00998 3.54623 9.45443 3.92126C9.49587 3.95649 9.56114 3.93162 9.56735 3.87775C9.72793 2.67806 10.7546 1.75188 11.9988 1.75188C13.2431 1.75188 14.2708 2.67806 14.4303 3.87879C14.4376 3.93266 14.5018 3.95752 14.5443 3.9223C14.9898 3.5452 15.5865 3.34007 16.2299 3.41052C17.2514 3.5224 18.076 4.34602 18.1889 5.36752C18.2428 5.85548 18.1371 6.31546 17.9196 6.70396H17.9206C17.9123 6.74022 17.9341 6.77752 17.9704 6.78684C18.0025 6.78477 18.0346 6.78374 18.0667 6.78374C19.0778 6.78374 19.8973 7.60321 19.8973 8.61435C19.8973 9.49702 19.2726 10.2336 18.4407 10.4066L18.8137 11.1805C18.9908 11.0769 19.197 11.0168 19.4176 11.0179C20.0455 11.021 20.5749 11.5348 20.5956 12.1627C20.6153 12.8371 20.0776 13.3903 19.4094 13.3903ZM10.4158 10.3714C10.2718 10.4439 10.0822 10.3486 9.99625 10.1663C9.91027 9.98394 9.95896 9.78089 10.105 9.71147C10.2511 9.6431 10.4448 9.73219 10.5246 9.9166C10.6034 10.0979 10.5557 10.301 10.4158 10.3714ZM14.0025 10.1663C13.9165 10.3486 13.7269 10.4439 13.5829 10.3714C13.443 10.301 13.3954 10.0979 13.4741 9.91764C13.5539 9.73323 13.7476 9.64413 13.8937 9.71251C14.0398 9.78089 14.0885 9.98394 14.0025 10.1663Z" fill="#FF0000"/>
<path d="M11.1006 20.7838C10.9897 20.7059 10.7732 20.5864 10.4935 20.5864H9.06274V20.8482H11.0798C11.114 20.8482 11.1285 20.8035 11.1006 20.7838Z" fill="#FF0000"/>
<path d="M12.899 20.7838C12.87 20.8035 12.8845 20.8482 12.9197 20.8482H14.9368V20.5864H13.5061C13.2264 20.5864 13.0099 20.7059 12.899 20.7838Z" fill="#FF0000"/>
<path d="M11.2324 13.0612C11.2583 13.0653 11.2738 13.0415 11.2593 13.0198C11.2189 12.9607 11.1195 12.8809 10.9796 12.854C10.8169 12.8219 10.702 12.8633 10.4357 12.8592C10.1788 12.855 9.94049 12.8074 9.70843 12.6976C9.33961 12.5235 9.07025 12.6023 8.92107 12.6717C8.89724 12.6831 8.90345 12.7204 8.93039 12.7183C9.12619 12.7027 9.25155 12.7504 9.40799 12.8664C9.57064 12.9866 9.89491 13.1513 10.129 13.1752C10.3414 13.1969 10.5673 13.1855 10.7475 13.1254C10.9112 13.0705 11.0635 13.0353 11.2324 13.0612Z" fill="#FF0000"/>
<path d="M13.871 13.1737C14.1051 13.1499 14.4304 12.9851 14.592 12.865C14.7484 12.75 14.8728 12.7013 15.0696 12.7168C15.0955 12.7189 15.1028 12.6806 15.0789 12.6702C14.9297 12.6008 14.6604 12.5221 14.2916 12.6961C14.0595 12.8059 13.8212 12.8536 13.5643 12.8577C13.2991 12.8619 13.183 12.8215 13.0204 12.8525C12.8805 12.8795 12.7811 12.9592 12.7407 13.0183C12.7262 13.0401 12.7417 13.0639 12.7676 13.0597C12.9365 13.0338 13.0888 13.0691 13.2535 13.1229C13.4327 13.1841 13.6586 13.1955 13.871 13.1737Z" fill="#FF0000"/>
<path d="M12.434 14.9189C12.4724 14.8961 12.4869 14.8763 12.4848 14.8628C12.489 14.8379 12.4434 14.8285 12.3833 14.8493C12.0746 14.9573 11.9306 14.9573 11.6166 14.8493C11.5566 14.8285 11.512 14.841 11.5151 14.8659C11.513 14.8794 11.5255 14.8971 11.5576 14.9168C11.9337 15.1381 12.0673 15.1381 12.434 14.9189Z" fill="#FF0000"/>
<path d="M11.2229 15.9668C11.2882 16.0694 11.3845 16.172 11.5378 16.2517C11.7077 16.3398 11.8859 16.3491 11.9989 16.3491C12.1118 16.3491 12.29 16.3398 12.4599 16.2517C12.6132 16.172 12.7106 16.0694 12.7748 15.9668C12.808 15.914 12.8598 15.8581 12.8929 15.8384C12.9136 15.8208 12.9167 15.8011 12.9054 15.7845C12.8908 15.7638 12.8556 15.7762 12.8556 15.7762C12.779 15.8073 12.6318 15.8145 12.5583 15.7917C12.3967 15.7441 12.2081 15.7348 12.1097 15.8208C12.0755 15.8508 12.0393 15.8808 11.9978 15.8808C11.9564 15.8808 11.9201 15.8518 11.8859 15.8208C11.7885 15.7348 11.599 15.7441 11.4373 15.7917C11.3638 15.8135 11.2156 15.8073 11.14 15.7762C11.14 15.7762 11.1048 15.7638 11.0903 15.7845C11.0789 15.8011 11.082 15.8208 11.1027 15.8384C11.1379 15.8581 11.1897 15.915 11.2229 15.9668Z" fill="#FF0000"/>
</svg>
